<svg width="364" height="63" viewBox="0 0 364 63" fill="none" xmlns="http://www.w3.org/2000/svg">
<path d="M88.4662 15H76.7207C75.6546 15 75 15.6551 75 16.7218V45.3382C75 46.405 75.6546 47.06 76.7207 47.06H88.4662C91.1221 47.06 93.2355 46.3114 94.7505 44.8329C96.2654 43.3543 97.0322 41.2394 97.0322 38.5818V23.4782C97.0322 20.8206 96.2654 18.7057 94.7505 17.2272C93.2355 15.7486 91.1221 15 88.4662 15ZM89.5697 23.7777V38.3011C89.5697 39.1058 89.4201 39.686 89.1395 39.9668C88.859 40.2475 88.2792 40.3972 87.475 40.3972H82.4625V21.6815H87.4563C88.2605 21.6815 88.8403 21.8312 89.1208 22.112C89.4201 22.3927 89.5697 22.9729 89.5697 23.7777Z" fill="white"/>
<path d="M121.309 15H105.748C104.682 15 104.027 15.6551 104.027 16.7218V45.3382C104.027 46.405 104.682 47.06 105.748 47.06H121.309C122.338 47.06 122.973 46.405 122.973 45.3382V42.1004C122.973 41.0336 122.338 40.3785 121.309 40.3785H111.508V34.1462H119.513C120.579 34.1462 121.234 33.4911 121.234 32.4243V29.1865C121.234 28.1197 120.579 27.4647 119.513 27.4647H111.508V21.6628H121.309C122.338 21.6628 122.973 21.0078 122.973 19.941V16.7031C122.973 15.655 122.338 15 121.309 15Z" fill="white"/>
<path d="M150.299 15H145.829C144.837 15 144.164 15.5802 143.996 16.5721L139.582 37.1781L135.187 16.5908C135 15.5802 134.326 15 133.354 15H128.865C128.173 15 127.668 15.2059 127.387 15.5989C127.2 15.8609 127.013 16.3101 127.219 16.9839L134.588 45.4692C134.775 46.4798 135.467 47.06 136.477 47.06H142.705C143.64 47.06 144.314 46.4986 144.538 45.5253L151.926 16.9652C152.057 16.385 151.963 15.9171 151.683 15.5615C151.402 15.1872 150.916 15 150.299 15Z" fill="white"/>
<path d="M174.351 28.9806C172.2 28.101 169.712 27.5395 166.944 27.3149C163.69 27.0342 163.69 25.8551 163.69 25.462V24.5637C163.69 22.9354 164.008 22.3739 164.195 22.1681C164.363 21.9809 164.887 21.6628 166.308 21.6628H168.16C169.563 21.6628 170.105 21.9622 170.292 22.1306C170.479 22.2991 170.778 22.7857 170.778 24.1332V24.414C170.778 25.4808 171.433 26.1358 172.499 26.1358H176.539C177.605 26.1358 178.26 25.4808 178.26 24.414V23.5156C178.26 20.858 177.474 18.7431 175.959 17.2458C174.426 15.7486 172.293 15 169.6 15H164.85C162.194 15 160.062 15.7673 158.547 17.2458C157.013 18.7431 156.246 20.858 156.246 23.5156V25.1813C156.246 27.2775 156.658 29.018 157.462 30.3843C158.285 31.7692 159.351 32.7237 160.604 33.2103C161.745 33.6408 162.979 34.0151 164.307 34.2959C165.635 34.5766 166.869 34.7638 167.992 34.8573C168.983 34.9322 169.806 35.1942 170.442 35.6247C170.984 35.9803 171.246 36.4669 171.246 37.1407V37.7208C171.246 38.7876 171.059 39.555 170.722 39.8731C170.479 40.1164 169.918 40.3785 168.628 40.3785H166.383C164.98 40.3785 164.438 40.079 164.251 39.9106C163.933 39.6111 163.765 38.9186 163.765 37.9454V37.5711C163.765 36.5043 163.11 35.8493 162.044 35.8493H158.004C156.938 35.8493 156.284 36.5043 156.284 37.5711V38.5256C156.284 41.1832 157.069 43.2981 158.584 44.7954C160.118 46.2926 162.231 47.0413 164.887 47.0413H170.068C172.724 47.0413 174.837 46.2739 176.371 44.7954C177.904 43.2981 178.671 41.1832 178.671 38.5256V36.9161C178.671 34.8948 178.26 33.1916 177.455 31.8628C176.651 30.4591 175.623 29.5046 174.351 28.9806Z" fill="#FF8400"/>
<path d="M205.791 15H201.788C200.722 15 200.068 15.6551 200.068 16.7218V38.3011C200.068 39.1058 199.918 39.686 199.637 39.9668C199.357 40.2475 198.777 40.3972 197.973 40.3972H194.7C193.933 40.3972 193.372 40.2475 193.091 39.9668C192.811 39.686 192.661 39.1058 192.661 38.3011V16.7218C192.661 15.6551 192.007 15 190.941 15H186.901C185.835 15 185.18 15.6551 185.18 16.7218V38.5818C185.18 41.2769 185.947 43.3917 187.443 44.8516C188.939 46.3114 191.053 47.06 193.746 47.06H198.983C201.639 47.06 203.752 46.3114 205.267 44.8329C206.782 43.3543 207.549 41.2394 207.549 38.5818V16.6657C207.549 15.6551 206.876 15 205.791 15Z" fill="#FF8400"/>
<path d="M228.103 15H216.489C215.423 15 214.768 15.6551 214.768 16.7218V45.3382C214.768 46.405 215.423 47.06 216.489 47.06H220.529C221.595 47.06 222.249 46.405 222.249 45.3382V36.5231H228.103C230.759 36.5231 232.873 35.7745 234.369 34.2959C235.865 32.8174 236.632 30.7025 236.632 28.0449V23.4782C236.632 20.8206 235.865 18.7244 234.369 17.2272C232.873 15.7673 230.759 15 228.103 15ZM229.151 23.7777V27.7828C229.151 28.5689 229.001 29.1304 228.721 29.4111C228.459 29.6918 227.898 29.8416 227.093 29.8416H222.231V21.7002H227.093C227.898 21.7002 228.459 21.85 228.721 22.1307C229.001 22.374 229.151 22.9542 229.151 23.7777Z" fill="#FF8400"/>
<path d="M259.992 15H244.431C243.365 15 242.71 15.6551 242.71 16.7218V45.3382C242.71 46.405 243.365 47.06 244.431 47.06H259.992C261.021 47.06 261.657 46.405 261.657 45.3382V42.1004C261.657 41.0336 261.021 40.3785 259.992 40.3785H250.192V34.1462H258.178C259.244 34.1462 259.899 33.4911 259.899 32.4243V29.1865C259.899 28.1197 259.244 27.4647 258.178 27.4647H250.192V21.6628H259.992C261.021 21.6628 261.657 21.0078 261.657 19.941V16.7031C261.657 15.655 261.021 15 259.992 15Z" fill="#FF8400"/>
<path d="M285.821 34.7451C288.514 33.3788 289.88 30.8522 289.88 27.2214V23.5156C289.88 20.858 289.094 18.7431 287.579 17.2459C286.046 15.7486 283.932 15 281.276 15H269.942C268.876 15 268.222 15.655 268.222 16.7218V45.3382C268.222 46.405 268.876 47.06 269.942 47.06H273.982C275.048 47.06 275.703 46.405 275.703 45.3382V35.7557H278.284L282.829 45.5815C283.053 46.1617 283.39 46.5734 283.801 46.7793C284.157 46.9664 284.662 47.0413 285.354 47.0413H289.206C289.861 47.0413 290.347 46.8354 290.609 46.4424C290.89 46.0494 290.908 45.544 290.647 44.8703L285.821 34.7451ZM282.417 23.759V27.4647C282.417 28.1946 282.249 28.7186 281.95 28.9994C281.613 29.2988 280.996 29.4672 280.192 29.4672H275.722V21.6628H280.192C281.014 21.6628 281.613 21.8125 281.95 22.1307C282.249 22.4301 282.417 22.9729 282.417 23.759Z" fill="#FF8400"/>
<path d="M302.972 15H298.932C297.866 15 297.211 15.6551 297.211 16.7218V45.3382C297.211 46.405 297.866 47.06 298.932 47.06H302.972C304.038 47.06 304.693 46.405 304.693 45.3382V16.7218C304.674 15.6551 304.019 15 302.972 15Z" fill="#FF8400"/>
<path d="M325.808 15H320.478C317.785 15 315.671 15.7486 314.175 17.2085C312.679 18.6683 311.912 20.7832 311.912 23.4782V38.5818C311.912 41.2769 312.679 43.3917 314.175 44.8516C315.671 46.3114 317.785 47.06 320.478 47.06H325.808C328.501 47.06 330.615 46.3114 332.111 44.8516C333.607 43.3917 334.374 41.2769 334.374 38.5818V23.4782C334.374 20.7832 333.607 18.6683 332.111 17.2085C330.615 15.7486 328.501 15 325.808 15ZM326.912 23.7777V38.3011C326.912 39.1058 326.762 39.686 326.482 39.9668C326.201 40.2475 325.621 40.3972 324.817 40.3972H321.432C320.627 40.3972 320.066 40.2475 319.805 39.9668C319.524 39.686 319.393 39.1058 319.393 38.3011V23.7777C319.393 22.9729 319.543 22.3927 319.805 22.112C320.066 21.8312 320.627 21.6815 321.432 21.6815H324.817C325.621 21.6815 326.201 21.8312 326.482 22.112C326.762 22.3927 326.912 22.9729 326.912 23.7777Z" fill="#FF8400"/>
<path d="M363.813 44.8703L358.969 34.7451C361.662 33.3788 363.027 30.8522 363.027 27.2214V23.5156C363.027 20.858 362.242 18.7431 360.727 17.2459C359.193 15.7486 357.08 15 354.424 15H343.09C342.024 15 341.369 15.655 341.369 16.7218V45.3382C341.369 46.405 342.024 47.06 343.09 47.06H347.13C348.196 47.06 348.85 46.405 348.85 45.3382V35.7557H351.431L355.976 45.5815C356.201 46.1617 356.537 46.5734 356.949 46.7793C357.304 46.9664 357.809 47.0413 358.501 47.0413H362.354C363.009 47.0413 363.495 46.8354 363.757 46.4424C364.037 46.0494 364.075 45.544 363.813 44.8703ZM355.565 23.759V27.4647C355.565 28.1946 355.396 28.7186 355.097 28.9994C354.761 29.2988 354.143 29.4672 353.339 29.4672H348.869V21.6628H353.339C354.162 21.6628 354.761 21.8125 355.097 22.1307C355.396 22.4301 355.565 22.9729 355.565 23.759Z" fill="#FF8400"/>
<path d="M58.7354 25.6304C58.4361 24.9754 57.7628 24.5449 57.0334 24.5449H44.7455L48.7853 8.31835C48.9911 7.47614 48.5983 6.59651 47.8128 6.20348C47.0459 5.81045 46.0921 5.9976 45.531 6.67137L21.9651 34.6327C21.4975 35.1941 21.3853 35.9615 21.7033 36.6352C22.0212 37.309 22.6758 37.7208 23.4053 37.7208H35.6932L31.6533 53.9473C31.4476 54.7895 31.8403 55.6691 32.6259 56.0622C32.8877 56.1932 33.187 56.268 33.4675 56.268C34.0099 56.268 34.5336 56.0434 34.8889 55.613L58.4548 27.633C58.9411 27.0715 59.0346 26.3042 58.7354 25.6304Z" fill="#FF8400"/>
</svg>
